<?xml version="1.0" standalone="no"?>
<!DOCTYPE svg PUBLIC "-//W3C//DTD SVG 20010904//EN"
 "http://www.w3.org/TR/2001/REC-SVG-20010904/DTD/svg10.dtd">
<svg version="1.0" xmlns="http://www.w3.org/2000/svg"
 width="1131.000000pt" height="600.000000pt" viewBox="0 0 1131.000000 600.000000"
 preserveAspectRatio="xMidYMid meet">
<metadata>
Created by potrace 1.13, written by Peter Selinger 2001-2015
</metadata>
<g transform="translate(0.000000,600.000000) scale(0.100000,-0.100000)"
fill="#000000" stroke="none">
<path d="M8090 5840 c-562 -38 -1099 -240 -1552 -587 -128 -98 -325 -287 -435
-418 -114 -136 -267 -367 -346 -522 -63 -125 -145 -312 -150 -343 -1 -8 -5
-20 -9 -25 -13 -21 -78 -259 -99 -358 -85 -419 -74 -874 31 -1262 17 -60 33
-121 36 -135 3 -14 28 -86 56 -160 284 -759 897 -1373 1653 -1655 691 -259
1436 -240 2115 52 193 83 475 246 466 269 -3 8 0 11 9 8 27 -11 341 247 456
373 361 400 583 813 698 1303 57 243 66 328 66 645 -1 253 -4 306 -23 420 -34
195 -72 345 -89 352 -10 4 -11 8 -4 12 12 8 -32 147 -94 296 -90 218 -247 483
-400 675 -135 171 -458 478 -481 459 -8 -7 -11 -5 -10 8 2 28 -265 202 -459
298 -241 119 -445 191 -681 240 -226 47 -535 70 -754 55z"/>
<path d="M262 5698 c-9 -9 -12 -497 -12 -2144 0 -1925 2 -2134 16 -2148 13
-14 60 -16 360 -16 314 0 344 -1 330 -16 -14 -14 -16 -82 -16 -598 0 -552 1
-584 18 -599 17 -16 138 -17 1533 -17 1165 0 1518 3 1527 12 17 17 17 1189 0
1206 -9 9 74 12 374 12 312 0 388 3 397 14 8 10 10 581 9 2157 l-3 2144 -2260
3 c-1750 1 -2264 -1 -2273 -10z m1628 -4559 c79 -17 139 -64 178 -140 87 -173
48 -427 -80 -515 -68 -46 -121 -54 -378 -54 l-230 0 0 75 0 75 30 0 30 0 0
210 0 210 -30 0 -30 0 0 75 0 75 230 0 c127 0 252 -5 280 -11z m610 -64 c0
-68 -2 -75 -20 -75 -19 0 -20 -7 -20 -189 0 -201 4 -221 50 -221 46 0 50 20
50 221 0 182 -1 189 -20 189 -18 0 -20 7 -20 75 l0 75 170 0 170 0 0 -75 0
-75 -30 0 -30 0 0 -197 c0 -187 -1 -201 -24 -249 -44 -94 -126 -134 -276 -134
-151 0 -240 43 -284 140 -18 40 -21 69 -24 243 l-4 197 -24 0 c-23 0 -24 2
-24 75 l0 75 180 0 180 0 0 -75z m1020 -65 l0 -140 -110 0 -110 0 0 65 0 65
-55 0 -55 0 0 -75 0 -75 45 0 45 0 0 -50 0 -50 -45 0 -45 0 0 -85 0 -85 55 0
55 0 0 70 0 70 110 0 110 0 0 -145 0 -145 -325 0 -325 0 0 75 0 75 30 0 30 0
0 210 0 210 -30 0 -30 0 0 75 0 75 325 0 325 0 0 -140z"/>
<path d="M1710 791 l0 -211 31 0 c17 0 39 5 50 10 18 10 19 23 19 193 0 100
-4 188 -9 195 -4 8 -27 16 -50 19 l-41 6 0 -212z"/>
</g>
</svg>
